<svg xmlns="http://www.w3.org/2000/svg" viewBox="0 0 1100 480" width="100%" role="img" aria-label="沐曦股份 688802 日线 + 成交量 + MACD（近90日）  量价/MACD背驰检测">
<rect width="1100" height="480" fill="#fffff8"/>
<text x="54" y="22" font-family="Georgia, 'Songti SC', 'Noto Serif CJK SC', serif" font-size="13" font-weight="700" fill="#1a1a1a">沐曦股份 688802 日线 + 成交量 + MACD（近90日）  量价/MACD背驰检测</text>
<line x1="54" y1="40.0" x2="1030" y2="40.0" stroke="#e6e0d0" stroke-width="0.6"/>
<text x="1036" y="43.0" font-family="Georgia, 'Songti SC', 'Noto Serif CJK SC', serif" font-size="9" fill="#666">899</text>
<line x1="54" y1="85.5" x2="1030" y2="85.5" stroke="#e6e0d0" stroke-width="0.6"/>
<text x="1036" y="88.5" font-family="Georgia, 'Songti SC', 'Noto Serif CJK SC', serif" font-size="9" fill="#666">792</text>
<line x1="54" y1="131.0" x2="1030" y2="131.0" stroke="#e6e0d0" stroke-width="0.6"/>
<text x="1036" y="134.0" font-family="Georgia, 'Songti SC', 'Noto Serif CJK SC', serif" font-size="9" fill="#666">685</text>
<line x1="54" y1="176.5" x2="1030" y2="176.5" stroke="#e6e0d0" stroke-width="0.6"/>
<text x="1036" y="179.5" font-family="Georgia, 'Songti SC', 'Noto Serif CJK SC', serif" font-size="9" fill="#666">578</text>
<line x1="54" y1="222.0" x2="1030" y2="222.0" stroke="#e6e0d0" stroke-width="0.6"/>
<text x="1036" y="225.0" font-family="Georgia, 'Songti SC', 'Noto Serif CJK SC', serif" font-size="9" fill="#666">471</text>
<line x1="54.0" y1="198.8" x2="54.0" y2="203.3" stroke="#c0392b" stroke-width="1"/>
<rect x="50.6" y="201.3" width="6.7" height="2.1" fill="#c0392b" opacity="0.92"/>
<rect x="50.6" y="299.0" width="6.7" height="12.0" fill="#888888" opacity="0.45"/>
<line x1="65.0" y1="193.3" x2="65.0" y2="202.1" stroke="#c0392b" stroke-width="1"/>
<rect x="61.6" y="195.5" width="6.7" height="5.8" fill="#c0392b" opacity="0.92"/>
<rect x="61.6" y="284.2" width="6.7" height="26.8" fill="#888888" opacity="0.45"/>
<line x1="75.9" y1="190.4" x2="75.9" y2="203.0" stroke="#c0392b" stroke-width="1"/>
<rect x="72.6" y="194.6" width="6.7" height="3.2" fill="#c0392b" opacity="0.92"/>
<rect x="72.6" y="286.1" width="6.7" height="24.9" fill="#888888" opacity="0.45"/>
<line x1="86.9" y1="195.8" x2="86.9" y2="201.6" stroke="#c0392b" stroke-width="1"/>
<rect x="83.5" y="199.2" width="6.7" height="1.7" fill="#c0392b" opacity="0.92"/>
<rect x="83.5" y="293.0" width="6.7" height="18.0" fill="#888888" opacity="0.45"/>
<line x1="97.9" y1="197.5" x2="97.9" y2="210.3" stroke="#2f6f4f" stroke-width="1"/>
<rect x="94.5" y="199.0" width="6.7" height="11.2" fill="#2f6f4f" opacity="0.92"/>
<rect x="94.5" y="292.1" width="6.7" height="18.9" fill="#888888" opacity="0.45"/>
<line x1="108.8" y1="201.7" x2="108.8" y2="212.2" stroke="#c0392b" stroke-width="1"/>
<rect x="105.5" y="206.2" width="6.7" height="6.1" fill="#c0392b" opacity="0.92"/>
<rect x="105.5" y="296.3" width="6.7" height="14.7" fill="#888888" opacity="0.45"/>
<line x1="119.8" y1="191.0" x2="119.8" y2="201.3" stroke="#c0392b" stroke-width="1"/>
<rect x="116.4" y="193.9" width="6.7" height="7.3" fill="#c0392b" opacity="0.92"/>
<rect x="116.4" y="277.6" width="6.7" height="33.4" fill="#888888" opacity="0.45"/>
<line x1="130.8" y1="192.0" x2="130.8" y2="198.7" stroke="#c0392b" stroke-width="1"/>
<rect x="127.4" y="195.4" width="6.7" height="1.6" fill="#c0392b" opacity="0.92"/>
<rect x="127.4" y="290.9" width="6.7" height="20.1" fill="#888888" opacity="0.45"/>
<line x1="141.7" y1="200.8" x2="141.7" y2="209.8" stroke="#2f6f4f" stroke-width="1"/>
<rect x="138.4" y="200.9" width="6.7" height="4.4" fill="#2f6f4f" opacity="0.92"/>
<rect x="138.4" y="288.1" width="6.7" height="22.9" fill="#888888" opacity="0.45"/>
<line x1="152.7" y1="197.1" x2="152.7" y2="202.8" stroke="#c0392b" stroke-width="1"/>
<rect x="149.3" y="197.5" width="6.7" height="5.3" fill="#c0392b" opacity="0.92"/>
<rect x="149.3" y="293.5" width="6.7" height="17.5" fill="#888888" opacity="0.45"/>
<line x1="163.7" y1="186.1" x2="163.7" y2="197.4" stroke="#c0392b" stroke-width="1"/>
<rect x="160.3" y="193.9" width="6.7" height="2.0" fill="#c0392b" opacity="0.92"/>
<rect x="160.3" y="279.6" width="6.7" height="31.4" fill="#888888" opacity="0.45"/>
<line x1="174.6" y1="195.3" x2="174.6" y2="203.4" stroke="#2f6f4f" stroke-width="1"/>
<rect x="171.3" y="195.4" width="6.7" height="5.9" fill="#2f6f4f" opacity="0.92"/>
<rect x="171.3" y="291.2" width="6.7" height="19.8" fill="#888888" opacity="0.45"/>
<line x1="185.6" y1="198.7" x2="185.6" y2="205.4" stroke="#2f6f4f" stroke-width="1"/>
<rect x="182.2" y="203.2" width="6.7" height="1.0" fill="#2f6f4f" opacity="0.92"/>
<rect x="182.2" y="298.1" width="6.7" height="12.9" fill="#888888" opacity="0.45"/>
<line x1="196.6" y1="194.6" x2="196.6" y2="210.2" stroke="#c0392b" stroke-width="1"/>
<rect x="193.2" y="194.9" width="6.7" height="9.8" fill="#c0392b" opacity="0.92"/>
<rect x="193.2" y="284.0" width="6.7" height="27.0" fill="#888888" opacity="0.45"/>
<line x1="207.5" y1="180.0" x2="207.5" y2="197.0" stroke="#c0392b" stroke-width="1"/>
<rect x="204.2" y="184.3" width="6.7" height="10.4" fill="#c0392b" opacity="0.92"/>
<rect x="204.2" y="264.2" width="6.7" height="46.8" fill="#888888" opacity="0.45"/>
<line x1="218.5" y1="177.7" x2="218.5" y2="191.5" stroke="#c0392b" stroke-width="1"/>
<rect x="215.1" y="180.1" width="6.7" height="7.1" fill="#c0392b" opacity="0.92"/>
<rect x="215.1" y="276.6" width="6.7" height="34.4" fill="#888888" opacity="0.45"/>
<line x1="229.5" y1="176.2" x2="229.5" y2="186.1" stroke="#2f6f4f" stroke-width="1"/>
<rect x="226.1" y="184.7" width="6.7" height="1.0" fill="#2f6f4f" opacity="0.92"/>
<rect x="226.1" y="284.4" width="6.7" height="26.6" fill="#888888" opacity="0.45"/>
<line x1="240.4" y1="176.2" x2="240.4" y2="184.9" stroke="#c0392b" stroke-width="1"/>
<rect x="237.1" y="178.4" width="6.7" height="5.4" fill="#c0392b" opacity="0.92"/>
<rect x="237.1" y="274.1" width="6.7" height="36.9" fill="#888888" opacity="0.45"/>
<line x1="251.4" y1="184.7" x2="251.4" y2="199.2" stroke="#2f6f4f" stroke-width="1"/>
<rect x="248.0" y="184.7" width="6.7" height="12.5" fill="#2f6f4f" opacity="0.92"/>
<rect x="248.0" y="281.5" width="6.7" height="29.5" fill="#888888" opacity="0.45"/>
<line x1="262.4" y1="158.5" x2="262.4" y2="198.3" stroke="#c0392b" stroke-width="1"/>
<rect x="259.0" y="166.8" width="6.7" height="27.2" fill="#c0392b" opacity="0.92"/>
<rect x="259.0" y="253.3" width="6.7" height="57.7" fill="#888888" opacity="0.45"/>
<line x1="273.3" y1="159.5" x2="273.3" y2="174.3" stroke="#c0392b" stroke-width="1"/>
<rect x="270.0" y="163.7" width="6.7" height="3.5" fill="#c0392b" opacity="0.92"/>
<rect x="270.0" y="270.8" width="6.7" height="40.2" fill="#888888" opacity="0.45"/>
<line x1="284.3" y1="160.8" x2="284.3" y2="169.8" stroke="#c0392b" stroke-width="1"/>
<rect x="280.9" y="164.8" width="6.7" height="2.0" fill="#c0392b" opacity="0.92"/>
<rect x="280.9" y="279.4" width="6.7" height="31.6" fill="#888888" opacity="0.45"/>
<line x1="295.3" y1="163.8" x2="295.3" y2="175.7" stroke="#c0392b" stroke-width="1"/>
<rect x="291.9" y="168.0" width="6.7" height="2.2" fill="#c0392b" opacity="0.92"/>
<rect x="291.9" y="286.7" width="6.7" height="24.3" fill="#888888" opacity="0.45"/>
<line x1="306.2" y1="154.8" x2="306.2" y2="175.5" stroke="#c0392b" stroke-width="1"/>
<rect x="302.9" y="155.7" width="6.7" height="17.9" fill="#c0392b" opacity="0.92"/>
<rect x="302.9" y="269.5" width="6.7" height="41.5" fill="#888888" opacity="0.45"/>
<line x1="317.2" y1="156.2" x2="317.2" y2="168.2" stroke="#2f6f4f" stroke-width="1"/>
<rect x="313.8" y="158.7" width="6.7" height="7.7" fill="#2f6f4f" opacity="0.92"/>
<rect x="313.8" y="280.0" width="6.7" height="31.0" fill="#888888" opacity="0.45"/>
<line x1="328.2" y1="158.7" x2="328.2" y2="165.1" stroke="#2f6f4f" stroke-width="1"/>
<rect x="324.8" y="159.1" width="6.7" height="4.2" fill="#2f6f4f" opacity="0.92"/>
<rect x="324.8" y="285.4" width="6.7" height="25.6" fill="#888888" opacity="0.45"/>
<line x1="339.1" y1="164.7" x2="339.1" y2="177.6" stroke="#2f6f4f" stroke-width="1"/>
<rect x="335.8" y="164.7" width="6.7" height="12.2" fill="#2f6f4f" opacity="0.92"/>
<rect x="335.8" y="282.6" width="6.7" height="28.4" fill="#888888" opacity="0.45"/>
<line x1="350.1" y1="165.3" x2="350.1" y2="177.5" stroke="#c0392b" stroke-width="1"/>
<rect x="346.7" y="172.1" width="6.7" height="4.0" fill="#c0392b" opacity="0.92"/>
<rect x="346.7" y="282.0" width="6.7" height="29.0" fill="#888888" opacity="0.45"/>
<line x1="361.1" y1="161.2" x2="361.1" y2="175.3" stroke="#c0392b" stroke-width="1"/>
<rect x="357.7" y="167.3" width="6.7" height="4.8" fill="#c0392b" opacity="0.92"/>
<rect x="357.7" y="284.1" width="6.7" height="26.9" fill="#888888" opacity="0.45"/>
<line x1="372.0" y1="158.7" x2="372.0" y2="165.8" stroke="#2f6f4f" stroke-width="1"/>
<rect x="368.7" y="159.6" width="6.7" height="1.9" fill="#2f6f4f" opacity="0.92"/>
<rect x="368.7" y="279.1" width="6.7" height="31.9" fill="#888888" opacity="0.45"/>
<line x1="383.0" y1="157.9" x2="383.0" y2="165.7" stroke="#c0392b" stroke-width="1"/>
<rect x="379.6" y="163.0" width="6.7" height="1.7" fill="#c0392b" opacity="0.92"/>
<rect x="379.6" y="285.8" width="6.7" height="25.2" fill="#888888" opacity="0.45"/>
<line x1="394.0" y1="158.9" x2="394.0" y2="164.9" stroke="#2f6f4f" stroke-width="1"/>
<rect x="390.6" y="161.3" width="6.7" height="1.0" fill="#2f6f4f" opacity="0.92"/>
<rect x="390.6" y="285.5" width="6.7" height="25.5" fill="#888888" opacity="0.45"/>
<line x1="404.9" y1="157.9" x2="404.9" y2="165.1" stroke="#c0392b" stroke-width="1"/>
<rect x="401.6" y="162.9" width="6.7" height="1.7" fill="#c0392b" opacity="0.92"/>
<rect x="401.6" y="287.8" width="6.7" height="23.2" fill="#888888" opacity="0.45"/>
<line x1="415.9" y1="159.0" x2="415.9" y2="165.6" stroke="#2f6f4f" stroke-width="1"/>
<rect x="412.5" y="161.3" width="6.7" height="1.0" fill="#2f6f4f" opacity="0.92"/>
<rect x="412.5" y="287.3" width="6.7" height="23.7" fill="#888888" opacity="0.45"/>
<line x1="426.9" y1="121.4" x2="426.9" y2="163.0" stroke="#c0392b" stroke-width="1"/>
<rect x="423.5" y="133.2" width="6.7" height="27.6" fill="#c0392b" opacity="0.92"/>
<rect x="423.5" y="236.8" width="6.7" height="74.2" fill="#888888" opacity="0.45"/>
<line x1="437.8" y1="109.0" x2="437.8" y2="139.3" stroke="#c0392b" stroke-width="1"/>
<rect x="434.5" y="109.0" width="6.7" height="28.4" fill="#c0392b" opacity="0.92"/>
<rect x="434.5" y="235.2" width="6.7" height="75.8" fill="#888888" opacity="0.45"/>
<line x1="448.8" y1="103.0" x2="448.8" y2="119.0" stroke="#2f6f4f" stroke-width="1"/>
<rect x="445.4" y="114.0" width="6.7" height="1.7" fill="#2f6f4f" opacity="0.92"/>
<rect x="445.4" y="258.4" width="6.7" height="52.6" fill="#888888" opacity="0.45"/>
<line x1="459.8" y1="110.7" x2="459.8" y2="126.5" stroke="#2f6f4f" stroke-width="1"/>
<rect x="456.4" y="115.7" width="6.7" height="5.8" fill="#2f6f4f" opacity="0.92"/>
<rect x="456.4" y="268.3" width="6.7" height="42.7" fill="#888888" opacity="0.45"/>
<line x1="470.7" y1="122.1" x2="470.7" y2="137.0" stroke="#c0392b" stroke-width="1"/>
<rect x="467.4" y="125.6" width="6.7" height="1.2" fill="#c0392b" opacity="0.92"/>
<rect x="467.4" y="276.2" width="6.7" height="34.8" fill="#888888" opacity="0.45"/>
<line x1="481.7" y1="121.7" x2="481.7" y2="131.4" stroke="#c0392b" stroke-width="1"/>
<rect x="478.3" y="124.0" width="6.7" height="3.6" fill="#c0392b" opacity="0.92"/>
<rect x="478.3" y="283.8" width="6.7" height="27.2" fill="#888888" opacity="0.45"/>
<line x1="492.7" y1="121.7" x2="492.7" y2="144.1" stroke="#2f6f4f" stroke-width="1"/>
<rect x="489.3" y="121.7" width="6.7" height="15.7" fill="#2f6f4f" opacity="0.92"/>
<rect x="489.3" y="266.0" width="6.7" height="45.0" fill="#888888" opacity="0.45"/>
<line x1="503.6" y1="114.0" x2="503.6" y2="148.9" stroke="#c0392b" stroke-width="1"/>
<rect x="500.3" y="117.0" width="6.7" height="21.8" fill="#c0392b" opacity="0.92"/>
<rect x="500.3" y="236.2" width="6.7" height="74.8" fill="#888888" opacity="0.45"/>
<line x1="514.6" y1="97.8" x2="514.6" y2="120.4" stroke="#c0392b" stroke-width="1"/>
<rect x="511.2" y="114.4" width="6.7" height="1.3" fill="#c0392b" opacity="0.92"/>
<rect x="511.2" y="255.2" width="6.7" height="55.8" fill="#888888" opacity="0.45"/>
<line x1="525.6" y1="100.0" x2="525.6" y2="118.3" stroke="#c0392b" stroke-width="1"/>
<rect x="522.2" y="114.4" width="6.7" height="3.8" fill="#c0392b" opacity="0.92"/>
<rect x="522.2" y="267.0" width="6.7" height="44.0" fill="#888888" opacity="0.45"/>
<line x1="536.5" y1="117.0" x2="536.5" y2="133.2" stroke="#c0392b" stroke-width="1"/>
<rect x="533.2" y="119.0" width="6.7" height="5.6" fill="#c0392b" opacity="0.92"/>
<rect x="533.2" y="275.1" width="6.7" height="35.9" fill="#888888" opacity="0.45"/>
<line x1="547.5" y1="91.9" x2="547.5" y2="119.1" stroke="#c0392b" stroke-width="1"/>
<rect x="544.1" y="100.0" width="6.7" height="19.2" fill="#c0392b" opacity="0.92"/>
<rect x="544.1" y="248.2" width="6.7" height="62.8" fill="#888888" opacity="0.45"/>
<line x1="558.4" y1="69.9" x2="558.4" y2="102.9" stroke="#c0392b" stroke-width="1"/>
<rect x="555.1" y="77.4" width="6.7" height="17.0" fill="#c0392b" opacity="0.92"/>
<rect x="555.1" y="232.0" width="6.7" height="79.0" fill="#888888" opacity="0.45"/>
<line x1="569.4" y1="60.8" x2="569.4" y2="90.6" stroke="#c0392b" stroke-width="1"/>
<rect x="566.1" y="63.8" width="6.7" height="19.1" fill="#c0392b" opacity="0.92"/>
<rect x="566.1" y="257.0" width="6.7" height="54.0" fill="#888888" opacity="0.45"/>
<line x1="580.4" y1="71.5" x2="580.4" y2="89.1" stroke="#2f6f4f" stroke-width="1"/>
<rect x="577.0" y="71.5" width="6.7" height="17.5" fill="#2f6f4f" opacity="0.92"/>
<rect x="577.0" y="258.2" width="6.7" height="52.8" fill="#888888" opacity="0.45"/>
<line x1="591.3" y1="80.8" x2="591.3" y2="99.0" stroke="#2f6f4f" stroke-width="1"/>
<rect x="588.0" y="82.5" width="6.7" height="4.9" fill="#2f6f4f" opacity="0.92"/>
<rect x="588.0" y="258.0" width="6.7" height="53.0" fill="#888888" opacity="0.45"/>
<line x1="602.3" y1="78.3" x2="602.3" y2="95.7" stroke="#2f6f4f" stroke-width="1"/>
<rect x="599.0" y="91.0" width="6.7" height="1.0" fill="#2f6f4f" opacity="0.92"/>
<rect x="599.0" y="271.3" width="6.7" height="39.7" fill="#888888" opacity="0.45"/>
<line x1="613.3" y1="86.6" x2="613.3" y2="108.5" stroke="#c0392b" stroke-width="1"/>
<rect x="609.9" y="89.5" width="6.7" height="11.7" fill="#c0392b" opacity="0.92"/>
<rect x="609.9" y="264.5" width="6.7" height="46.5" fill="#888888" opacity="0.45"/>
<line x1="624.2" y1="86.8" x2="624.2" y2="107.6" stroke="#2f6f4f" stroke-width="1"/>
<rect x="620.9" y="86.8" width="6.7" height="20.4" fill="#2f6f4f" opacity="0.92"/>
<rect x="620.9" y="278.5" width="6.7" height="32.5" fill="#888888" opacity="0.45"/>
<line x1="635.2" y1="105.5" x2="635.2" y2="124.2" stroke="#2f6f4f" stroke-width="1"/>
<rect x="631.9" y="111.9" width="6.7" height="6.3" fill="#2f6f4f" opacity="0.92"/>
<rect x="631.9" y="272.7" width="6.7" height="38.3" fill="#888888" opacity="0.45"/>
<line x1="646.2" y1="103.9" x2="646.2" y2="122.5" stroke="#c0392b" stroke-width="1"/>
<rect x="642.8" y="112.5" width="6.7" height="7.9" fill="#c0392b" opacity="0.92"/>
<rect x="642.8" y="279.2" width="6.7" height="31.8" fill="#888888" opacity="0.45"/>
<line x1="657.1" y1="99.6" x2="657.1" y2="130.4" stroke="#c0392b" stroke-width="1"/>
<rect x="653.8" y="102.1" width="6.7" height="11.8" fill="#c0392b" opacity="0.92"/>
<rect x="653.8" y="268.9" width="6.7" height="42.1" fill="#888888" opacity="0.45"/>
<line x1="668.1" y1="73.6" x2="668.1" y2="109.8" stroke="#c0392b" stroke-width="1"/>
<rect x="664.8" y="92.7" width="6.7" height="15.8" fill="#c0392b" opacity="0.92"/>
<rect x="664.8" y="247.4" width="6.7" height="63.6" fill="#888888" opacity="0.45"/>
<line x1="679.1" y1="87.4" x2="679.1" y2="116.2" stroke="#2f6f4f" stroke-width="1"/>
<rect x="675.7" y="92.3" width="6.7" height="22.3" fill="#2f6f4f" opacity="0.92"/>
<rect x="675.7" y="262.5" width="6.7" height="48.5" fill="#888888" opacity="0.45"/>
<line x1="690.0" y1="103.4" x2="690.0" y2="116.2" stroke="#c0392b" stroke-width="1"/>
<rect x="686.7" y="112.6" width="6.7" height="3.6" fill="#c0392b" opacity="0.92"/>
<rect x="686.7" y="282.9" width="6.7" height="28.1" fill="#888888" opacity="0.45"/>
<line x1="701.0" y1="97.0" x2="701.0" y2="116.2" stroke="#c0392b" stroke-width="1"/>
<rect x="697.6" y="101.6" width="6.7" height="12.6" fill="#c0392b" opacity="0.92"/>
<rect x="697.6" y="267.5" width="6.7" height="43.5" fill="#888888" opacity="0.45"/>
<line x1="712.0" y1="103.4" x2="712.0" y2="117.5" stroke="#2f6f4f" stroke-width="1"/>
<rect x="708.6" y="104.8" width="6.7" height="4.9" fill="#2f6f4f" opacity="0.92"/>
<rect x="708.6" y="277.9" width="6.7" height="33.1" fill="#888888" opacity="0.45"/>
<line x1="722.9" y1="110.6" x2="722.9" y2="129.3" stroke="#2f6f4f" stroke-width="1"/>
<rect x="719.6" y="110.6" width="6.7" height="16.2" fill="#2f6f4f" opacity="0.92"/>
<rect x="719.6" y="273.7" width="6.7" height="37.3" fill="#888888" opacity="0.45"/>
<line x1="733.9" y1="122.0" x2="733.9" y2="133.0" stroke="#2f6f4f" stroke-width="1"/>
<rect x="730.5" y="124.7" width="6.7" height="1.0" fill="#2f6f4f" opacity="0.92"/>
<rect x="730.5" y="286.0" width="6.7" height="25.0" fill="#888888" opacity="0.45"/>
<line x1="744.9" y1="123.9" x2="744.9" y2="138.7" stroke="#2f6f4f" stroke-width="1"/>
<rect x="741.5" y="126.5" width="6.7" height="8.4" fill="#2f6f4f" opacity="0.92"/>
<rect x="741.5" y="280.6" width="6.7" height="30.4" fill="#888888" opacity="0.45"/>
<line x1="755.8" y1="128.9" x2="755.8" y2="152.8" stroke="#2f6f4f" stroke-width="1"/>
<rect x="752.5" y="132.8" width="6.7" height="18.5" fill="#2f6f4f" opacity="0.92"/>
<rect x="752.5" y="281.6" width="6.7" height="29.4" fill="#888888" opacity="0.45"/>
<line x1="766.8" y1="134.1" x2="766.8" y2="152.8" stroke="#c0392b" stroke-width="1"/>
<rect x="763.4" y="140.2" width="6.7" height="11.0" fill="#c0392b" opacity="0.92"/>
<rect x="763.4" y="281.6" width="6.7" height="29.4" fill="#888888" opacity="0.45"/>
<line x1="777.8" y1="98.0" x2="777.8" y2="143.1" stroke="#c0392b" stroke-width="1"/>
<rect x="774.4" y="100.7" width="6.7" height="40.2" fill="#c0392b" opacity="0.92"/>
<rect x="774.4" y="249.2" width="6.7" height="61.8" fill="#888888" opacity="0.45"/>
<line x1="788.7" y1="99.3" x2="788.7" y2="115.3" stroke="#2f6f4f" stroke-width="1"/>
<rect x="785.4" y="108.5" width="6.7" height="5.8" fill="#2f6f4f" opacity="0.92"/>
<rect x="785.4" y="274.4" width="6.7" height="36.6" fill="#888888" opacity="0.45"/>
<line x1="799.7" y1="92.9" x2="799.7" y2="124.4" stroke="#2f6f4f" stroke-width="1"/>
<rect x="796.3" y="116.2" width="6.7" height="4.3" fill="#2f6f4f" opacity="0.92"/>
<rect x="796.3" y="263.9" width="6.7" height="47.1" fill="#888888" opacity="0.45"/>
<line x1="810.7" y1="111.5" x2="810.7" y2="137.9" stroke="#c0392b" stroke-width="1"/>
<rect x="807.3" y="123.4" width="6.7" height="14.5" fill="#c0392b" opacity="0.92"/>
<rect x="807.3" y="277.4" width="6.7" height="33.6" fill="#888888" opacity="0.45"/>
<line x1="821.6" y1="116.2" x2="821.6" y2="127.4" stroke="#2f6f4f" stroke-width="1"/>
<rect x="818.3" y="117.7" width="6.7" height="4.8" fill="#2f6f4f" opacity="0.92"/>
<rect x="818.3" y="284.0" width="6.7" height="27.0" fill="#888888" opacity="0.45"/>
<line x1="832.6" y1="109.6" x2="832.6" y2="133.1" stroke="#2f6f4f" stroke-width="1"/>
<rect x="829.2" y="122.3" width="6.7" height="4.9" fill="#2f6f4f" opacity="0.92"/>
<rect x="829.2" y="278.6" width="6.7" height="32.4" fill="#888888" opacity="0.45"/>
<line x1="843.6" y1="117.9" x2="843.6" y2="133.2" stroke="#c0392b" stroke-width="1"/>
<rect x="840.2" y="119.6" width="6.7" height="13.6" fill="#c0392b" opacity="0.92"/>
<rect x="840.2" y="278.6" width="6.7" height="32.4" fill="#888888" opacity="0.45"/>
<line x1="854.5" y1="106.5" x2="854.5" y2="126.8" stroke="#2f6f4f" stroke-width="1"/>
<rect x="851.2" y="113.2" width="6.7" height="13.7" fill="#2f6f4f" opacity="0.92"/>
<rect x="851.2" y="265.4" width="6.7" height="45.6" fill="#888888" opacity="0.45"/>
<line x1="865.5" y1="112.6" x2="865.5" y2="131.5" stroke="#c0392b" stroke-width="1"/>
<rect x="862.1" y="115.8" width="6.7" height="4.7" fill="#c0392b" opacity="0.92"/>
<rect x="862.1" y="282.9" width="6.7" height="28.1" fill="#888888" opacity="0.45"/>
<line x1="876.5" y1="109.8" x2="876.5" y2="123.0" stroke="#c0392b" stroke-width="1"/>
<rect x="873.1" y="112.4" width="6.7" height="3.3" fill="#c0392b" opacity="0.92"/>
<rect x="873.1" y="283.1" width="6.7" height="27.9" fill="#888888" opacity="0.45"/>
<line x1="887.4" y1="109.7" x2="887.4" y2="124.7" stroke="#c0392b" stroke-width="1"/>
<rect x="884.1" y="110.8" width="6.7" height="8.2" fill="#c0392b" opacity="0.92"/>
<rect x="884.1" y="274.8" width="6.7" height="36.2" fill="#888888" opacity="0.45"/>
<line x1="898.4" y1="86.7" x2="898.4" y2="110.8" stroke="#c0392b" stroke-width="1"/>
<rect x="895.0" y="94.9" width="6.7" height="15.9" fill="#c0392b" opacity="0.92"/>
<rect x="895.0" y="260.2" width="6.7" height="50.8" fill="#888888" opacity="0.45"/>
<line x1="909.4" y1="93.8" x2="909.4" y2="118.1" stroke="#2f6f4f" stroke-width="1"/>
<rect x="906.0" y="96.6" width="6.7" height="3.4" fill="#2f6f4f" opacity="0.92"/>
<rect x="906.0" y="260.3" width="6.7" height="50.7" fill="#888888" opacity="0.45"/>
<line x1="920.3" y1="78.7" x2="920.3" y2="111.5" stroke="#c0392b" stroke-width="1"/>
<rect x="917.0" y="95.3" width="6.7" height="10.6" fill="#c0392b" opacity="0.92"/>
<rect x="917.0" y="261.9" width="6.7" height="49.1" fill="#888888" opacity="0.45"/>
<line x1="931.3" y1="91.0" x2="931.3" y2="113.6" stroke="#c0392b" stroke-width="1"/>
<rect x="927.9" y="94.8" width="6.7" height="8.6" fill="#c0392b" opacity="0.92"/>
<rect x="927.9" y="276.1" width="6.7" height="34.9" fill="#888888" opacity="0.45"/>
<line x1="942.3" y1="87.7" x2="942.3" y2="104.1" stroke="#c0392b" stroke-width="1"/>
<rect x="938.9" y="94.6" width="6.7" height="1.1" fill="#c0392b" opacity="0.92"/>
<rect x="938.9" y="275.6" width="6.7" height="35.4" fill="#888888" opacity="0.45"/>
<line x1="953.2" y1="96.6" x2="953.2" y2="111.9" stroke="#2f6f4f" stroke-width="1"/>
<rect x="949.9" y="100.8" width="6.7" height="10.9" fill="#2f6f4f" opacity="0.92"/>
<rect x="949.9" y="285.1" width="6.7" height="25.9" fill="#888888" opacity="0.45"/>
<line x1="964.2" y1="82.5" x2="964.2" y2="116.2" stroke="#c0392b" stroke-width="1"/>
<rect x="960.8" y="84.8" width="6.7" height="31.3" fill="#c0392b" opacity="0.92"/>
<rect x="960.8" y="256.0" width="6.7" height="55.0" fill="#888888" opacity="0.45"/>
<line x1="975.2" y1="66.4" x2="975.2" y2="90.2" stroke="#c0392b" stroke-width="1"/>
<rect x="971.8" y="70.1" width="6.7" height="17.6" fill="#c0392b" opacity="0.92"/>
<rect x="971.8" y="268.0" width="6.7" height="43.0" fill="#888888" opacity="0.45"/>
<line x1="986.1" y1="62.5" x2="986.1" y2="94.8" stroke="#2f6f4f" stroke-width="1"/>
<rect x="982.8" y="70.2" width="6.7" height="20.4" fill="#2f6f4f" opacity="0.92"/>
<rect x="982.8" y="269.7" width="6.7" height="41.3" fill="#888888" opacity="0.45"/>
<line x1="997.1" y1="88.9" x2="997.1" y2="115.7" stroke="#2f6f4f" stroke-width="1"/>
<rect x="993.7" y="93.3" width="6.7" height="21.1" fill="#2f6f4f" opacity="0.92"/>
<rect x="993.7" y="278.5" width="6.7" height="32.5" fill="#888888" opacity="0.45"/>
<line x1="1008.1" y1="100.0" x2="1008.1" y2="119.1" stroke="#c0392b" stroke-width="1"/>
<rect x="1004.7" y="108.3" width="6.7" height="3.0" fill="#c0392b" opacity="0.92"/>
<rect x="1004.7" y="282.4" width="6.7" height="28.6" fill="#888888" opacity="0.45"/>
<line x1="1019.0" y1="105.5" x2="1019.0" y2="128.9" stroke="#2f6f4f" stroke-width="1"/>
<rect x="1015.7" y="108.2" width="6.7" height="3.3" fill="#2f6f4f" opacity="0.92"/>
<rect x="1015.7" y="282.6" width="6.7" height="28.4" fill="#888888" opacity="0.45"/>
<line x1="1030.0" y1="49.8" x2="1030.0" y2="114.9" stroke="#c0392b" stroke-width="1"/>
<rect x="1026.6" y="67.6" width="6.7" height="45.5" fill="#c0392b" opacity="0.92"/>
<rect x="1026.6" y="241.6" width="6.7" height="69.4" fill="#888888" opacity="0.45"/>
<polyline points="54.0,205.7 65.0,204.5 75.9,202.6 86.9,201.3 97.9,201.9 108.8,202.1 119.8,200.9 130.8,200.3 141.7,200.4 152.7,199.9 163.7,199.2 174.6,199.7 185.6,200.7 196.6,200.3 207.5,197.7 218.5,195.1 229.5,194.2 240.4,192.5 251.4,191.7 262.4,188.6 273.3,185.6 284.3,181.9 295.3,178.3 306.2,174.4 317.2,172.6 328.2,170.9 339.1,170.1 350.1,169.5 361.1,166.5 372.0,166.0 383.0,165.9 394.0,165.6 404.9,165.1 415.9,165.7 426.9,162.3 437.8,156.9 448.8,150.8 459.8,145.7 470.7,141.6 481.7,137.8 492.7,135.3 503.6,130.8 514.6,125.9 525.6,121.2 536.5,119.8 547.5,118.9 558.4,115.1 569.4,109.3 580.4,105.6 591.3,102.0 602.3,97.4 613.3,94.7 624.2,94.0 635.2,94.3 646.2,93.7 657.1,93.9 668.1,95.4 679.1,100.5 690.0,102.9 701.0,104.3 712.0,106.1 722.9,109.8 733.9,111.6 744.9,113.2 755.8,117.1 766.8,120.9 777.8,121.7 788.7,121.7 799.7,122.5 810.7,124.6 821.6,125.9 832.6,126.0 843.6,125.4 854.5,124.6 865.5,121.1 876.5,118.3 887.4,119.3 898.4,117.4 909.4,115.3 920.3,112.5 931.3,109.8 942.3,106.5 953.2,105.7 964.2,101.5 975.2,97.0 986.1,94.8 997.1,95.1 1008.1,96.5 1019.0,97.6 1030.0,94.8" fill="none" stroke="#2f6f4f" stroke-width="1.4" />
<polyline points="54.0,193.4 65.0,194.9 75.9,196.2 86.9,197.5 97.9,199.1 108.8,200.4 119.8,201.3 130.8,201.9 141.7,202.9 152.7,202.9 163.7,202.4 174.6,202.1 185.6,201.7 196.6,200.8 207.5,199.8 218.5,198.6 229.5,197.5 240.4,196.4 251.4,196.0 262.4,194.2 273.3,192.4 284.3,190.8 295.3,189.5 306.2,187.3 317.2,185.1 328.2,183.0 339.1,182.1 350.1,181.0 361.1,179.1 372.0,177.3 383.0,175.7 394.0,173.8 404.9,171.7 415.9,170.0 426.9,167.5 437.8,163.9 448.8,160.5 459.8,157.6 470.7,154.0 481.7,151.9 492.7,150.6 503.6,148.2 514.6,145.5 525.6,143.5 536.5,141.1 547.5,137.9 558.4,132.9 569.4,127.5 580.4,123.6 591.3,119.9 602.3,116.4 613.3,112.7 624.2,109.9 635.2,107.8 646.2,106.8 657.1,106.4 668.1,105.3 679.1,104.9 690.0,104.3 701.0,103.1 712.0,101.8 722.9,102.2 733.9,102.8 744.9,103.8 755.8,105.4 766.8,107.4 777.8,108.6 788.7,111.1 799.7,112.7 810.7,114.5 821.6,116.0 832.6,117.9 843.6,118.5 854.5,118.9 865.5,119.1 876.5,119.6 887.4,120.5 898.4,119.5 909.4,118.9 920.3,118.6 931.3,117.8 942.3,116.2 953.2,115.6 964.2,113.1 975.2,109.0 986.1,106.5 997.1,107.2 1008.1,106.9 1019.0,106.5 1030.0,103.7" fill="none" stroke="#8b1538" stroke-width="1.4" stroke-dasharray="5,3"/>
<polyline points="130.8,174.4 141.7,177.1 152.7,179.3 163.7,180.9 174.6,182.4 185.6,183.7 196.6,184.5 207.5,185.2 218.5,185.6 229.5,186.1 240.4,186.4 251.4,186.8 262.4,186.8 273.3,186.7 284.3,186.7 295.3,187.1 306.2,187.2 317.2,187.3 328.2,187.4 339.1,187.7 350.1,187.8 361.1,187.8 372.0,187.7 383.0,187.5 394.0,187.4 404.9,187.3 415.9,187.1 426.9,186.1 437.8,184.7 448.8,183.5 459.8,182.3 470.7,181.1 481.7,179.7 492.7,178.3 503.6,176.5 514.6,174.5 525.6,172.6 536.5,170.9 547.5,168.8 558.4,166.2 569.4,163.5 580.4,161.2 591.3,158.9 602.3,156.7 613.3,154.5 624.2,152.8 635.2,151.2 646.2,149.2 657.1,147.1 668.1,145.1 679.1,143.5 690.0,141.7 701.0,139.7 712.0,138.1 722.9,136.6 733.9,135.0 744.9,133.8 755.8,133.1 766.8,132.3 777.8,130.6 788.7,129.3 799.7,127.8 810.7,126.9 821.6,126.1 832.6,125.4 843.6,124.4 854.5,123.8 865.5,122.8 876.5,121.8 887.4,120.5 898.4,118.9 909.4,117.6 920.3,116.3 931.3,114.9 942.3,113.5 953.2,112.5 964.2,111.0 975.2,109.7 986.1,109.4 997.1,109.3 1008.1,109.1 1019.0,108.8 1030.0,107.7" fill="none" stroke="#6a4c93" stroke-width="1.4" stroke-dasharray="5,3"/>
<line x1="54" y1="392.0" x2="1030" y2="392.0" stroke="#bbb" stroke-width="0.6"/>
<rect x="50.6" y="380.1" width="6.7" height="11.9" fill="#c0392b" opacity="0.5"/>
<rect x="61.6" y="376.6" width="6.7" height="15.4" fill="#c0392b" opacity="0.5"/>
<rect x="72.6" y="374.3" width="6.7" height="17.7" fill="#c0392b" opacity="0.5"/>
<rect x="83.5" y="374.5" width="6.7" height="17.5" fill="#c0392b" opacity="0.5"/>
<rect x="94.5" y="378.7" width="6.7" height="13.3" fill="#c0392b" opacity="0.5"/>
<rect x="105.5" y="380.0" width="6.7" height="12.0" fill="#c0392b" opacity="0.5"/>
<rect x="116.4" y="376.7" width="6.7" height="15.3" fill="#c0392b" opacity="0.5"/>
<rect x="127.4" y="375.4" width="6.7" height="16.6" fill="#c0392b" opacity="0.5"/>
<rect x="138.4" y="378.3" width="6.7" height="13.7" fill="#c0392b" opacity="0.5"/>
<rect x="149.3" y="377.6" width="6.7" height="14.4" fill="#c0392b" opacity="0.5"/>
<rect x="160.3" y="376.3" width="6.7" height="15.7" fill="#c0392b" opacity="0.5"/>
<rect x="171.3" y="378.4" width="6.7" height="13.6" fill="#c0392b" opacity="0.5"/>
<rect x="182.2" y="381.0" width="6.7" height="11.0" fill="#c0392b" opacity="0.5"/>
<rect x="193.2" y="379.7" width="6.7" height="12.3" fill="#c0392b" opacity="0.5"/>
<rect x="204.2" y="375.6" width="6.7" height="16.4" fill="#c0392b" opacity="0.5"/>
<rect x="215.1" y="372.1" width="6.7" height="19.9" fill="#c0392b" opacity="0.5"/>
<rect x="226.1" y="372.4" width="6.7" height="19.6" fill="#c0392b" opacity="0.5"/>
<rect x="237.1" y="371.2" width="6.7" height="20.8" fill="#c0392b" opacity="0.5"/>
<rect x="248.0" y="377.7" width="6.7" height="14.3" fill="#c0392b" opacity="0.5"/>
<rect x="259.0" y="372.1" width="6.7" height="19.9" fill="#c0392b" opacity="0.5"/>
<rect x="270.0" y="368.5" width="6.7" height="23.5" fill="#c0392b" opacity="0.5"/>
<rect x="280.9" y="367.8" width="6.7" height="24.2" fill="#c0392b" opacity="0.5"/>
<rect x="291.9" y="369.7" width="6.7" height="22.3" fill="#c0392b" opacity="0.5"/>
<rect x="302.9" y="368.0" width="6.7" height="24.0" fill="#c0392b" opacity="0.5"/>
<rect x="313.8" y="372.0" width="6.7" height="20.0" fill="#c0392b" opacity="0.5"/>
<rect x="324.8" y="374.6" width="6.7" height="17.4" fill="#c0392b" opacity="0.5"/>
<rect x="335.8" y="382.0" width="6.7" height="10.0" fill="#c0392b" opacity="0.5"/>
<rect x="346.7" y="385.8" width="6.7" height="6.2" fill="#c0392b" opacity="0.5"/>
<rect x="357.7" y="387.1" width="6.7" height="4.9" fill="#c0392b" opacity="0.5"/>
<rect x="368.7" y="386.4" width="6.7" height="5.6" fill="#c0392b" opacity="0.5"/>
<rect x="379.6" y="387.1" width="6.7" height="4.9" fill="#c0392b" opacity="0.5"/>
<rect x="390.6" y="387.7" width="6.7" height="4.3" fill="#c0392b" opacity="0.5"/>
<rect x="401.6" y="389.0" width="6.7" height="3.0" fill="#c0392b" opacity="0.5"/>
<rect x="412.5" y="389.6" width="6.7" height="2.4" fill="#c0392b" opacity="0.5"/>
<rect x="423.5" y="381.0" width="6.7" height="11.0" fill="#c0392b" opacity="0.5"/>
<rect x="434.5" y="368.2" width="6.7" height="23.8" fill="#c0392b" opacity="0.5"/>
<rect x="445.4" y="364.1" width="6.7" height="27.9" fill="#c0392b" opacity="0.5"/>
<rect x="456.4" y="365.5" width="6.7" height="26.5" fill="#c0392b" opacity="0.5"/>
<rect x="467.4" y="369.6" width="6.7" height="22.4" fill="#c0392b" opacity="0.5"/>
<rect x="478.3" y="373.4" width="6.7" height="18.6" fill="#c0392b" opacity="0.5"/>
<rect x="489.3" y="381.9" width="6.7" height="10.1" fill="#c0392b" opacity="0.5"/>
<rect x="500.3" y="381.4" width="6.7" height="10.6" fill="#c0392b" opacity="0.5"/>
<rect x="511.2" y="381.4" width="6.7" height="10.6" fill="#c0392b" opacity="0.5"/>
<rect x="522.2" y="382.7" width="6.7" height="9.3" fill="#c0392b" opacity="0.5"/>
<rect x="533.2" y="386.2" width="6.7" height="5.8" fill="#c0392b" opacity="0.5"/>
<rect x="544.1" y="383.0" width="6.7" height="9.0" fill="#c0392b" opacity="0.5"/>
<rect x="555.1" y="374.5" width="6.7" height="17.5" fill="#c0392b" opacity="0.5"/>
<rect x="566.1" y="366.3" width="6.7" height="25.7" fill="#c0392b" opacity="0.5"/>
<rect x="577.0" y="371.8" width="6.7" height="20.2" fill="#c0392b" opacity="0.5"/>
<rect x="588.0" y="376.7" width="6.7" height="15.3" fill="#c0392b" opacity="0.5"/>
<rect x="599.0" y="383.0" width="6.7" height="9.0" fill="#c0392b" opacity="0.5"/>
<rect x="609.9" y="387.5" width="6.7" height="4.5" fill="#c0392b" opacity="0.5"/>
<rect x="620.9" y="392.0" width="6.7" height="5.6" fill="#2f6f4f" opacity="0.5"/>
<rect x="631.9" y="392.0" width="6.7" height="16.2" fill="#2f6f4f" opacity="0.5"/>
<rect x="642.8" y="392.0" width="6.7" height="21.0" fill="#2f6f4f" opacity="0.5"/>
<rect x="653.8" y="392.0" width="6.7" height="20.2" fill="#2f6f4f" opacity="0.5"/>
<rect x="664.8" y="392.0" width="6.7" height="16.3" fill="#2f6f4f" opacity="0.5"/>
<rect x="675.7" y="392.0" width="6.7" height="21.1" fill="#2f6f4f" opacity="0.5"/>
<rect x="686.7" y="392.0" width="6.7" height="23.1" fill="#2f6f4f" opacity="0.5"/>
<rect x="697.6" y="392.0" width="6.7" height="20.0" fill="#2f6f4f" opacity="0.5"/>
<rect x="708.6" y="392.0" width="6.7" height="20.4" fill="#2f6f4f" opacity="0.5"/>
<rect x="719.6" y="392.0" width="6.7" height="26.0" fill="#2f6f4f" opacity="0.5"/>
<rect x="730.5" y="392.0" width="6.7" height="27.9" fill="#2f6f4f" opacity="0.5"/>
<rect x="741.5" y="392.0" width="6.7" height="31.5" fill="#2f6f4f" opacity="0.5"/>
<rect x="752.5" y="392.0" width="6.7" height="38.1" fill="#2f6f4f" opacity="0.5"/>
<rect x="763.4" y="392.0" width="6.7" height="36.7" fill="#2f6f4f" opacity="0.5"/>
<rect x="774.4" y="392.0" width="6.7" height="20.7" fill="#2f6f4f" opacity="0.5"/>
<rect x="785.4" y="392.0" width="6.7" height="14.4" fill="#2f6f4f" opacity="0.5"/>
<rect x="796.3" y="392.0" width="6.7" height="11.9" fill="#2f6f4f" opacity="0.5"/>
<rect x="807.3" y="392.0" width="6.7" height="10.8" fill="#2f6f4f" opacity="0.5"/>
<rect x="818.3" y="392.0" width="6.7" height="9.3" fill="#2f6f4f" opacity="0.5"/>
<rect x="829.2" y="392.0" width="6.7" height="9.5" fill="#2f6f4f" opacity="0.5"/>
<rect x="840.2" y="392.0" width="6.7" height="6.6" fill="#2f6f4f" opacity="0.5"/>
<rect x="851.2" y="392.0" width="6.7" height="6.9" fill="#2f6f4f" opacity="0.5"/>
<rect x="862.1" y="392.0" width="6.7" height="2.9" fill="#2f6f4f" opacity="0.5"/>
<rect x="873.1" y="391.2" width="6.7" height="0.8" fill="#c0392b" opacity="0.5"/>
<rect x="884.1" y="388.3" width="6.7" height="3.7" fill="#c0392b" opacity="0.5"/>
<rect x="895.0" y="381.3" width="6.7" height="10.7" fill="#c0392b" opacity="0.5"/>
<rect x="906.0" y="379.2" width="6.7" height="12.8" fill="#c0392b" opacity="0.5"/>
<rect x="917.0" y="377.0" width="6.7" height="15.0" fill="#c0392b" opacity="0.5"/>
<rect x="927.9" y="376.4" width="6.7" height="15.6" fill="#c0392b" opacity="0.5"/>
<rect x="938.9" y="376.9" width="6.7" height="15.1" fill="#c0392b" opacity="0.5"/>
<rect x="949.9" y="383.9" width="6.7" height="8.1" fill="#c0392b" opacity="0.5"/>
<rect x="960.8" y="379.8" width="6.7" height="12.2" fill="#c0392b" opacity="0.5"/>
<rect x="971.8" y="373.0" width="6.7" height="19.0" fill="#c0392b" opacity="0.5"/>
<rect x="982.8" y="377.0" width="6.7" height="15.0" fill="#c0392b" opacity="0.5"/>
<rect x="993.7" y="388.7" width="6.7" height="3.3" fill="#c0392b" opacity="0.5"/>
<rect x="1004.7" y="392.0" width="6.7" height="2.4" fill="#2f6f4f" opacity="0.5"/>
<rect x="1015.7" y="392.0" width="6.7" height="7.2" fill="#2f6f4f" opacity="0.5"/>
<rect x="1026.6" y="387.2" width="6.7" height="4.8" fill="#c0392b" opacity="0.5"/>
<polyline points="54.0,428.3 65.0,424.6 75.9,421.2 86.9,419.2 97.9,419.6 108.8,418.8 119.8,415.2 130.8,412.5 141.7,412.2 152.7,410.1 163.7,407.5 174.6,406.8 185.6,406.7 196.6,404.5 207.5,400.4 218.5,396.2 229.5,393.9 240.4,390.7 251.4,392.2 262.4,386.9 273.3,382.1 284.3,378.7 295.3,376.9 306.2,373.1 317.2,372.5 328.2,371.7 339.1,374.1 350.1,375.2 361.1,375.3 372.0,374.3 383.0,374.0 394.0,373.8 404.9,374.0 415.9,374.0 426.9,368.3 437.8,359.0 448.8,353.5 459.8,350.8 470.7,350.1 481.7,349.6 492.7,352.6 503.6,351.0 514.6,349.8 525.6,349.2 536.5,350.3 547.5,347.5 558.4,341.1 569.4,333.7 580.4,334.0 591.3,334.5 602.3,336.5 613.3,338.3 624.2,344.0 635.2,351.3 646.2,356.3 657.1,358.5 668.1,358.5 679.1,363.6 690.0,367.4 701.0,368.4 712.0,371.2 722.9,377.2 733.9,381.7 744.9,387.4 755.8,395.4 766.8,399.3 777.8,393.9 788.7,392.6 799.7,392.8 810.7,393.6 821.6,394.0 832.6,395.3 843.6,394.7 854.5,395.7 865.5,394.1 876.5,392.1 887.4,390.2 898.4,385.4 909.4,382.7 920.3,379.8 931.3,377.5 942.3,375.8 953.2,378.3 964.2,374.8 975.2,369.0 986.1,369.1 997.1,374.5 1008.1,377.7 1019.0,381.0 1030.0,374.4" fill="none" stroke="#1a5276" stroke-width="1.2"/>
<polyline points="54.0,434.2 65.0,432.3 75.9,430.1 86.9,427.9 97.9,426.2 108.8,424.7 119.8,422.8 130.8,420.8 141.7,419.0 152.7,417.3 163.7,415.3 174.6,413.6 185.6,412.2 196.6,410.7 207.5,408.6 218.5,406.2 229.5,403.7 240.4,401.1 251.4,399.3 262.4,396.8 273.3,393.9 284.3,390.9 295.3,388.1 306.2,385.1 317.2,382.6 328.2,380.4 339.1,379.1 350.1,378.4 361.1,377.7 372.0,377.0 383.0,376.4 394.0,375.9 404.9,375.5 415.9,375.2 426.9,373.8 437.8,370.9 448.8,367.4 459.8,364.1 470.7,361.3 481.7,358.9 492.7,357.7 503.6,356.3 514.6,355.0 525.6,353.9 536.5,353.1 547.5,352.0 558.4,349.8 569.4,346.6 580.4,344.1 591.3,342.2 602.3,341.0 613.3,340.5 624.2,341.2 635.2,343.2 646.2,345.8 657.1,348.4 668.1,350.4 679.1,353.0 690.0,355.9 701.0,358.4 712.0,361.0 722.9,364.2 733.9,367.7 744.9,371.6 755.8,376.4 766.8,381.0 777.8,383.6 788.7,385.4 799.7,386.9 810.7,388.2 821.6,389.4 832.6,390.6 843.6,391.4 854.5,392.2 865.5,392.6 876.5,392.5 887.4,392.0 898.4,390.7 909.4,389.1 920.3,387.2 931.3,385.3 942.3,383.4 953.2,382.4 964.2,380.9 975.2,378.5 986.1,376.6 997.1,376.2 1008.1,376.5 1019.0,377.4 1030.0,376.8" fill="none" stroke="#8b1538" stroke-width="1.2"/>
<text x="54.0" y="454" font-family="Georgia, 'Songti SC', 'Noto Serif CJK SC', serif" font-size="9" fill="#666" text-anchor="middle">2026-02-25</text>
<text x="547.5" y="454" font-family="Georgia, 'Songti SC', 'Noto Serif CJK SC', serif" font-size="9" fill="#666" text-anchor="middle">2026-04-30</text>
<text x="1030.0" y="454" font-family="Georgia, 'Songti SC', 'Noto Serif CJK SC', serif" font-size="9" fill="#666" text-anchor="middle">2026-07-07</text>
<text x="4" y="131.0" font-family="Georgia, 'Songti SC', 'Noto Serif CJK SC', serif" font-size="9" fill="#888" transform="rotate(-90 4 131.0)">价格¥</text>
<text x="4" y="271.5" font-family="Georgia, 'Songti SC', 'Noto Serif CJK SC', serif" font-size="8" fill="#888" transform="rotate(-90 4 271.5)">成交量</text>
<text x="4" y="392.0" font-family="Georgia, 'Songti SC', 'Noto Serif CJK SC', serif" font-size="8" fill="#888" transform="rotate(-90 4 392.0)">MACD</text>
<line x1="58" y1="34" x2="76" y2="34" stroke="#2f6f4f" stroke-width="1.6"/>
<text x="80" y="37" font-family="Georgia, 'Songti SC', 'Noto Serif CJK SC', serif" font-size="9" fill="#555">MA10</text>
<line x1="178" y1="34" x2="196" y2="34" stroke="#8b1538" stroke-width="1.6"/>
<text x="200" y="37" font-family="Georgia, 'Songti SC', 'Noto Serif CJK SC', serif" font-size="9" fill="#555">MA20</text>
<line x1="298" y1="34" x2="316" y2="34" stroke="#6a4c93" stroke-width="1.6"/>
<text x="320" y="37" font-family="Georgia, 'Songti SC', 'Noto Serif CJK SC', serif" font-size="9" fill="#555">MA50</text>
<circle cx="569.4" cy="60.8" r="4.5" fill="none" stroke="#8b1538" stroke-width="1.6"/>
<text x="569.4" y="48.8" font-family="Georgia, 'Songti SC', 'Noto Serif CJK SC', serif" font-size="10" fill="#8b1538" text-anchor="middle" font-weight="700">5/7 收盘843 盘中850</text>
<circle cx="975.2" cy="66.4" r="4.5" fill="none" stroke="#6a4c93" stroke-width="1.6"/>
<text x="975.2" y="54.4" font-family="Georgia, 'Songti SC', 'Noto Serif CJK SC', serif" font-size="10" fill="#6a4c93" text-anchor="middle" font-weight="700">6/30 828</text>
<circle cx="1030.0" cy="49.8" r="4.5" fill="none" stroke="#c0392b" stroke-width="1.6"/>
<text x="1030.0" y="37.8" font-family="Georgia, 'Songti SC', 'Noto Serif CJK SC', serif" font-size="10" fill="#c0392b" text-anchor="middle" font-weight="700">7/7 盘中876 收834</text>
</svg>