<svg xmlns="http://www.w3.org/2000/svg" viewBox="0 0 1100 440" width="100%" role="img" aria-label="沐曦股份 688802 周线（截至 2026-07-07，前复权）  阶段全景">
<rect width="1100" height="440" fill="#fffff8"/>
<text x="54" y="22" font-family="Georgia, "Songti SC", "Noto Serif CJK SC", serif" font-size="13" font-weight="700" fill="#1a1a1a">沐曦股份 688802 周线（截至 2026-07-07，前复权）  阶段全景</text>
<line x1="54" y1="40.0" x2="1030" y2="40.0" stroke="#e6e0d0" stroke-width="0.6"/>
<text x="1036" y="43.0" font-family="Georgia, "Songti SC", "Noto Serif CJK SC", serif" font-size="9" fill="#666">920</text>
<line x1="54" y1="102.2" x2="1030" y2="102.2" stroke="#e6e0d0" stroke-width="0.6"/>
<text x="1036" y="105.2" font-family="Georgia, "Songti SC", "Noto Serif CJK SC", serif" font-size="9" fill="#666">803</text>
<line x1="54" y1="164.5" x2="1030" y2="164.5" stroke="#e6e0d0" stroke-width="0.6"/>
<text x="1036" y="167.5" font-family="Georgia, "Songti SC", "Noto Serif CJK SC", serif" font-size="9" fill="#666">687</text>
<line x1="54" y1="226.8" x2="1030" y2="226.8" stroke="#e6e0d0" stroke-width="0.6"/>
<text x="1036" y="229.8" font-family="Georgia, "Songti SC", "Noto Serif CJK SC", serif" font-size="9" fill="#666">571</text>
<line x1="54" y1="289.0" x2="1030" y2="289.0" stroke="#e6e0d0" stroke-width="0.6"/>
<text x="1036" y="292.0" font-family="Georgia, "Songti SC", "Noto Serif CJK SC", serif" font-size="9" fill="#666">454</text>
<line x1="54.0" y1="53.3" x2="54.0" y2="184.3" stroke="#c0392b" stroke-width="1"/>
<rect x="43.6" y="149.2" width="20.9" height="8.3" fill="#c0392b" opacity="0.92"/>
<rect x="43.6" y="299.0" width="20.9" height="106.0" fill="#888888" opacity="0.45"/>
<line x1="88.9" y1="144.2" x2="88.9" y2="208.3" stroke="#2f6f4f" stroke-width="1"/>
<rect x="78.4" y="156.5" width="20.9" height="44.0" fill="#2f6f4f" opacity="0.92"/>
<rect x="78.4" y="330.3" width="20.9" height="74.7" fill="#888888" opacity="0.45"/>
<line x1="123.7" y1="195.0" x2="123.7" y2="221.7" stroke="#2f6f4f" stroke-width="1"/>
<rect x="113.3" y="205.7" width="20.9" height="16.0" fill="#2f6f4f" opacity="0.92"/>
<rect x="113.3" y="378.9" width="20.9" height="26.1" fill="#888888" opacity="0.45"/>
<line x1="158.6" y1="181.6" x2="158.6" y2="229.1" stroke="#c0392b" stroke-width="1"/>
<rect x="148.1" y="192.4" width="20.9" height="29.6" fill="#c0392b" opacity="0.92"/>
<rect x="148.1" y="352.8" width="20.9" height="52.2" fill="#888888" opacity="0.45"/>
<line x1="193.4" y1="187.0" x2="193.4" y2="217.4" stroke="#2f6f4f" stroke-width="1"/>
<rect x="183.0" y="194.0" width="20.9" height="16.1" fill="#2f6f4f" opacity="0.92"/>
<rect x="183.0" y="371.0" width="20.9" height="34.0" fill="#888888" opacity="0.45"/>
<line x1="228.3" y1="204.5" x2="228.3" y2="219.5" stroke="#2f6f4f" stroke-width="1"/>
<rect x="217.9" y="209.9" width="20.9" height="7.8" fill="#2f6f4f" opacity="0.92"/>
<rect x="217.9" y="384.9" width="20.9" height="20.1" fill="#888888" opacity="0.45"/>
<line x1="263.1" y1="216.4" x2="263.1" y2="234.0" stroke="#2f6f4f" stroke-width="1"/>
<rect x="252.7" y="216.4" width="20.9" height="17.0" fill="#2f6f4f" opacity="0.92"/>
<rect x="252.7" y="386.2" width="20.9" height="18.8" fill="#888888" opacity="0.45"/>
<line x1="298.0" y1="233.6" x2="298.0" y2="275.7" stroke="#2f6f4f" stroke-width="1"/>
<rect x="287.6" y="237.1" width="20.9" height="30.6" fill="#2f6f4f" opacity="0.92"/>
<rect x="287.6" y="382.1" width="20.9" height="22.9" fill="#888888" opacity="0.45"/>
<line x1="332.9" y1="249.5" x2="332.9" y2="265.9" stroke="#c0392b" stroke-width="1"/>
<rect x="322.4" y="257.5" width="20.9" height="5.9" fill="#c0392b" opacity="0.92"/>
<rect x="322.4" y="387.3" width="20.9" height="17.7" fill="#888888" opacity="0.45"/>
<line x1="367.7" y1="240.1" x2="367.7" y2="258.5" stroke="#c0392b" stroke-width="1"/>
<rect x="357.3" y="245.4" width="20.9" height="8.3" fill="#c0392b" opacity="0.92"/>
<rect x="357.3" y="386.9" width="20.9" height="18.1" fill="#888888" opacity="0.45"/>
<line x1="402.6" y1="240.8" x2="402.6" y2="267.5" stroke="#c0392b" stroke-width="1"/>
<rect x="392.1" y="246.4" width="20.9" height="6.8" fill="#c0392b" opacity="0.92"/>
<rect x="392.1" y="380.3" width="20.9" height="24.7" fill="#888888" opacity="0.45"/>
<line x1="437.4" y1="234.7" x2="437.4" y2="264.4" stroke="#2f6f4f" stroke-width="1"/>
<rect x="427.0" y="253.2" width="20.9" height="4.2" fill="#2f6f4f" opacity="0.92"/>
<rect x="427.0" y="380.5" width="20.9" height="24.5" fill="#888888" opacity="0.45"/>
<line x1="472.3" y1="222.2" x2="472.3" y2="265.0" stroke="#c0392b" stroke-width="1"/>
<rect x="461.9" y="225.0" width="20.9" height="33.0" fill="#c0392b" opacity="0.92"/>
<rect x="461.9" y="364.8" width="20.9" height="40.2" fill="#888888" opacity="0.45"/>
<line x1="507.1" y1="200.1" x2="507.1" y2="251.1" stroke="#c0392b" stroke-width="1"/>
<rect x="496.7" y="212.0" width="20.9" height="20.9" fill="#c0392b" opacity="0.92"/>
<rect x="496.7" y="362.0" width="20.9" height="43.0" fill="#888888" opacity="0.45"/>
<line x1="542.0" y1="195.4" x2="542.0" y2="224.0" stroke="#c0392b" stroke-width="1"/>
<rect x="531.6" y="217.1" width="20.9" height="1.9" fill="#c0392b" opacity="0.92"/>
<rect x="531.6" y="368.5" width="20.9" height="36.5" fill="#888888" opacity="0.45"/>
<line x1="576.9" y1="199.2" x2="576.9" y2="221.1" stroke="#c0392b" stroke-width="1"/>
<rect x="566.4" y="204.4" width="20.9" height="12.7" fill="#c0392b" opacity="0.92"/>
<rect x="566.4" y="379.3" width="20.9" height="25.7" fill="#888888" opacity="0.45"/>
<line x1="611.7" y1="130.3" x2="611.7" y2="209.0" stroke="#c0392b" stroke-width="1"/>
<rect x="601.3" y="146.3" width="20.9" height="61.5" fill="#c0392b" opacity="0.92"/>
<rect x="601.3" y="346.5" width="20.9" height="58.5" fill="#888888" opacity="0.45"/>
<line x1="646.6" y1="140.0" x2="646.6" y2="188.0" stroke="#2f6f4f" stroke-width="1"/>
<rect x="636.1" y="146.3" width="20.9" height="1.6" fill="#2f6f4f" opacity="0.92"/>
<rect x="636.1" y="352.4" width="20.9" height="52.6" fill="#888888" opacity="0.45"/>
<line x1="681.4" y1="116.4" x2="681.4" y2="168.2" stroke="#c0392b" stroke-width="1"/>
<rect x="671.0" y="126.5" width="20.9" height="19.8" fill="#c0392b" opacity="0.92"/>
<rect x="671.0" y="358.5" width="20.9" height="46.5" fill="#888888" opacity="0.45"/>
<line x1="716.3" y1="77.4" x2="716.3" y2="130.3" stroke="#c0392b" stroke-width="1"/>
<rect x="705.9" y="112.7" width="20.9" height="6.8" fill="#c0392b" opacity="0.92"/>
<rect x="705.9" y="361.4" width="20.9" height="43.6" fill="#888888" opacity="0.45"/>
<line x1="751.1" y1="99.4" x2="751.1" y2="157.0" stroke="#2f6f4f" stroke-width="1"/>
<rect x="740.7" y="104.6" width="20.9" height="44.7" fill="#2f6f4f" opacity="0.92"/>
<rect x="740.7" y="355.8" width="20.9" height="49.2" fill="#888888" opacity="0.45"/>
<line x1="786.0" y1="93.4" x2="786.0" y2="164.7" stroke="#c0392b" stroke-width="1"/>
<rect x="775.6" y="142.4" width="20.9" height="9.9" fill="#c0392b" opacity="0.92"/>
<rect x="775.6" y="354.8" width="20.9" height="50.2" fill="#888888" opacity="0.45"/>
<line x1="820.9" y1="122.8" x2="820.9" y2="175.2" stroke="#2f6f4f" stroke-width="1"/>
<rect x="810.4" y="144.4" width="20.9" height="26.0" fill="#2f6f4f" opacity="0.92"/>
<rect x="810.4" y="365.3" width="20.9" height="39.7" fill="#888888" opacity="0.45"/>
<line x1="855.7" y1="117.6" x2="855.7" y2="192.8" stroke="#c0392b" stroke-width="1"/>
<rect x="845.3" y="152.2" width="20.9" height="15.5" fill="#c0392b" opacity="0.92"/>
<rect x="845.3" y="357.1" width="20.9" height="47.9" fill="#888888" opacity="0.45"/>
<line x1="890.6" y1="134.8" x2="890.6" y2="174.1" stroke="#c0392b" stroke-width="1"/>
<rect x="880.1" y="160.3" width="20.9" height="13.8" fill="#c0392b" opacity="0.92"/>
<rect x="880.1" y="364.9" width="20.9" height="40.1" fill="#888888" opacity="0.45"/>
<line x1="925.4" y1="109.9" x2="925.4" y2="166.1" stroke="#c0392b" stroke-width="1"/>
<rect x="915.0" y="120.2" width="20.9" height="32.1" fill="#c0392b" opacity="0.92"/>
<rect x="915.0" y="371.5" width="20.9" height="33.5" fill="#888888" opacity="0.45"/>
<line x1="960.3" y1="99.8" x2="960.3" y2="149.3" stroke="#2f6f4f" stroke-width="1"/>
<rect x="949.9" y="122.3" width="20.9" height="19.0" fill="#2f6f4f" opacity="0.92"/>
<rect x="949.9" y="359.0" width="20.9" height="46.0" fill="#888888" opacity="0.45"/>
<line x1="995.1" y1="79.5" x2="995.1" y2="150.6" stroke="#c0392b" stroke-width="1"/>
<rect x="984.7" y="137.0" width="20.9" height="9.8" fill="#c0392b" opacity="0.92"/>
<rect x="984.7" y="358.0" width="20.9" height="47.0" fill="#888888" opacity="0.45"/>
<line x1="1030.0" y1="63.5" x2="1030.0" y2="162.8" stroke="#c0392b" stroke-width="1"/>
<rect x="1019.6" y="85.9" width="20.9" height="50.9" fill="#c0392b" opacity="0.92"/>
<rect x="1019.6" y="382.1" width="20.9" height="22.9" fill="#888888" opacity="0.45"/>
<polyline points="367.7,219.5 402.6,229.3 437.4,235.0 472.3,235.3 507.1,237.3 542.0,238.0 576.9,236.6 611.7,227.9 646.6,216.0 681.4,202.9 716.3,189.6 751.1,179.9 786.0,168.4 820.9,162.9 855.7,156.9 890.6,151.2 925.4,142.8 960.3,142.3 995.1,141.2 1030.0,137.2" fill="none" stroke="#2f6f4f" stroke-width="1.4" />
<polyline points="" fill="none" stroke="#8b1538" stroke-width="1.4" stroke-dasharray="5,3"/>
<text x="54.0" y="414" font-family="Georgia, "Songti SC", "Noto Serif CJK SC", serif" font-size="9" fill="#666" text-anchor="middle">2025-12-19</text>
<text x="542.0" y="414" font-family="Georgia, "Songti SC", "Noto Serif CJK SC", serif" font-size="9" fill="#666" text-anchor="middle">2026-04-03</text>
<text x="1030.0" y="414" font-family="Georgia, "Songti SC", "Noto Serif CJK SC", serif" font-size="9" fill="#666" text-anchor="middle">2026-07-10</text>
<text x="4" y="164.5" font-family="Georgia, "Songti SC", "Noto Serif CJK SC", serif" font-size="9" fill="#888" transform="rotate(-90 4 164.5)">价格¥</text>
<text x="4" y="352.0" font-family="Georgia, "Songti SC", "Noto Serif CJK SC", serif" font-size="8" fill="#888" transform="rotate(-90 4 352.0)">成交量</text>
<line x1="58" y1="34" x2="76" y2="34" stroke="#2f6f4f" stroke-width="1.6"/>
<text x="80" y="37" font-family="Georgia, "Songti SC", "Noto Serif CJK SC", serif" font-size="9" fill="#555">10周均线</text>
<line x1="178" y1="34" x2="196" y2="34" stroke="#8b1538" stroke-width="1.6"/>
<text x="200" y="37" font-family="Georgia, "Songti SC", "Noto Serif CJK SC", serif" font-size="9" fill="#555">30周均线(部分N/A)</text>
<circle cx="1030.0" cy="63.5" r="4.5" fill="none" stroke="#8b1538" stroke-width="1.6"/>
<text x="1030.0" y="51.5" font-family="Georgia, "Songti SC", "Noto Serif CJK SC", serif" font-size="10" fill="#8b1538" text-anchor="middle" font-weight="700">IPO 895</text>
<circle cx="263.1" cy="234.0" r="4.5" fill="none" stroke="#2f6f4f" stroke-width="1.6"/>
<text x="263.1" y="222.0" font-family="Georgia, "Songti SC", "Noto Serif CJK SC", serif" font-size="10" fill="#2f6f4f" text-anchor="middle" font-weight="700">底 492</text>
<circle cx="472.3" cy="222.2" r="4.5" fill="none" stroke="#6a4c93" stroke-width="1.6"/>
<text x="472.3" y="210.2" font-family="Georgia, "Songti SC", "Noto Serif CJK SC", serif" font-size="10" fill="#6a4c93" text-anchor="middle" font-weight="700">突破</text>
<circle cx="681.4" cy="116.4" r="4.5" fill="none" stroke="#8b1538" stroke-width="1.6"/>
<text x="681.4" y="104.4" font-family="Georgia, "Songti SC", "Noto Serif CJK SC", serif" font-size="10" fill="#8b1538" text-anchor="middle" font-weight="700">阶段顶 843</text>
<circle cx="820.9" cy="175.2" r="4.5" fill="none" stroke="#2f6f4f" stroke-width="1.6"/>
<text x="820.9" y="163.2" font-family="Georgia, "Songti SC", "Noto Serif CJK SC", serif" font-size="10" fill="#2f6f4f" text-anchor="middle" font-weight="700">回调 638</text>
<circle cx="995.1" cy="79.5" r="4.5" fill="none" stroke="#c0392b" stroke-width="1.6"/>
<text x="995.1" y="67.5" font-family="Georgia, "Songti SC", "Noto Serif CJK SC", serif" font-size="10" fill="#c0392b" text-anchor="middle" font-weight="700">7-7 冲876</text>
</svg>